<?xml version="1.0" encoding="utf-8"?>
<!-- Generator: Adobe Illustrator 16.0.0, SVG Export Plug-In . SVG Version: 6.00 Build 0)  -->
<!DOCTYPE svg PUBLIC "-//W3C//DTD SVG 1.1//EN" "http://www.w3.org/Graphics/SVG/1.1/DTD/svg11.dtd">
<svg version="1.1" id="图层_1" xmlns="http://www.w3.org/2000/svg" xmlns:xlink="http://www.w3.org/1999/xlink" x="0px" y="0px"
	 width="6px" height="9px" viewBox="0 0 6 9" enable-background="new 0 0 6 9" xml:space="preserve">
<g>
	<polygon fill-rule="evenodd" clip-rule="evenodd" points="5,4 5,3 4,3 4,2 3,2 3,1 2,1 2,0 0,0 0,1 1,1 1,2 2,2 2,3 3,3 3,4 4,4 
		4,5 3,5 3,6 2,6 2,7 1,7 1,8 0,8 0,9 2,9 2,8 3,8 3,7 4,7 4,6 5,6 5,5 6,5 6,4 	"/>
</g>
</svg>
